<svg width="71" height="52" viewBox="0 0 71 52" fill="none" xmlns="http://www.w3.org/2000/svg">
<g clip-path="url(#clip0_18412_3505)">
<path d="M67.7248 0H3.27521C1.46636 0 0 1.438 0 3.21186V48.7881C0 50.562 1.46636 52 3.27521 52H67.7248C69.5336 52 71 50.562 71 48.7881V3.21186C71 1.438 69.5336 0 67.7248 0Z" fill="#545776"/>
<path d="M47.4054 35.838C46.3561 35.8369 45.3079 35.7682 44.2677 35.6324C43.2961 35.5167 42.3458 35.268 41.4445 34.8937C40.6573 34.5765 39.9652 34.068 39.4335 33.4163C38.9058 32.7083 38.6401 31.8449 38.6802 30.9688V9.72559H44.176V19.9072L43.1214 18.1728C43.5978 17.6413 44.1884 17.2201 44.8507 16.9394C45.5343 16.6376 46.254 16.4217 46.9927 16.2971C47.5892 16.1867 48.1938 16.1244 48.8006 16.1108C51.6086 16.1108 53.7462 16.9416 55.2135 18.6032C56.6808 20.2648 57.4144 22.6929 57.4144 25.8877C57.4595 27.4934 57.2042 29.0936 56.6611 30.6091C56.2281 31.7846 55.5058 32.8371 54.5585 33.6732C53.6381 34.443 52.5588 35.0084 51.3946 35.3305C50.0964 35.6854 48.753 35.8563 47.4054 35.838ZM47.3333 31.2643C48.2522 31.3083 49.1638 31.0848 49.9535 30.6219C50.6046 30.1886 51.0979 29.5631 51.3619 28.8361C51.6631 27.9945 51.8095 27.1071 51.7942 26.2153C51.8422 25.0694 51.6504 23.9261 51.2308 22.8557C50.9305 22.1065 50.3903 21.4731 49.6915 21.0506C49.0021 20.6717 48.2217 20.4809 47.4316 20.4982C46.8766 20.5028 46.3234 20.5631 45.7809 20.678C45.2133 20.7906 44.6673 20.99 44.1629 21.269V29.5363C44.1494 29.727 44.1795 29.9181 44.2509 30.0959C44.3223 30.2737 44.4332 30.4337 44.5756 30.5641C44.904 30.8378 45.2988 31.0236 45.7219 31.1037C46.251 31.2186 46.7915 31.2747 47.3333 31.2707V31.2643Z" fill="white"/>
<path d="M13.9463 35.2855V10.6826H24.0274C28.2939 10.6826 31.4294 11.7233 33.4338 13.8045C35.4382 15.8858 36.4404 18.9478 36.4404 22.9905C36.4404 27.0246 35.4382 30.0801 33.4338 32.1571C31.4294 34.2341 28.2939 35.2726 24.0274 35.2726L13.9463 35.2855ZM20.0382 30.6797H23.3134C25.5711 30.6797 27.2829 30.0651 28.4489 28.836C29.6149 27.6027 30.1979 25.6627 30.1979 23.0033C30.1979 20.3439 29.6149 18.3397 28.4489 17.1192C27.2829 15.8987 25.5733 15.282 23.3134 15.282H20.0382V30.6797Z" fill="white"/>
<path d="M34.1278 40.6493V42.2617H13.5923V40.6365L34.1278 40.6493Z" fill="white"/>
<path d="M54.6635 40.6493V42.2617H34.1279V40.6365L54.6635 40.6493Z" fill="white"/>
</g>
<defs>
<clipPath id="clip0_18412_3505">
<rect width="71" height="52" fill="white"/>
</clipPath>
</defs>
</svg>
